<svg xmlns="http://www.w3.org/2000/svg" viewBox="0 0 70.9 66.83"><g id="Layer_2" data-name="Layer 2"><g id="Layer_1-2" data-name="Layer 1"><path d="M29.66,1.32l.48-.48a2.45,2.45,0,0,1,4.18,1.73V24.41a2.47,2.47,0,0,1-.72,1.74L15.34,44.41a2.44,2.44,0,0,1-3.46,0L.72,33.25a2.44,2.44,0,0,1,0-3.46l6.62-6.63a2.45,2.45,0,0,1,1.73-.72h.48a2.45,2.45,0,0,1,1.73,4.18L8.12,29.79a2.44,2.44,0,0,0,0,3.46l3.82,3.82a2.46,2.46,0,0,0,3.46,0L28.12,24.35a2.51,2.51,0,0,0,.72-1.72L28.94,3A2.51,2.51,0,0,1,29.66,1.32Z"/><path d="M36.59,2.45v22a2.47,2.47,0,0,0,.72,1.74l.47.47A2.45,2.45,0,0,0,42,25v-10a2.45,2.45,0,0,1,4.18-1.73l16.59,16.6a2.44,2.44,0,0,1,0,3.46L59,37a2.46,2.46,0,0,1-3.46,0l-5.79-5.79A2.45,2.45,0,0,0,45.54,33v.6a2.45,2.45,0,0,0,.72,1.73l9.19,9.19a2.44,2.44,0,0,0,3.46,0L70.18,33.2a2.44,2.44,0,0,0,0-3.47L40.76.71A2.45,2.45,0,0,0,36.59,2.45Z"/><path d="M17.32,46.28l.23-.23a2.46,2.46,0,0,1,3.46,0l5,5a2.45,2.45,0,0,0,3.47,0l9.19-9.19a2.46,2.46,0,0,0,0-3.46l-5-5a2.46,2.46,0,0,1,0-3.46l.24-.24a2.45,2.45,0,0,1,3.47,0L53.84,46.17a2.44,2.44,0,0,1,0,3.46h0a2.44,2.44,0,0,1-3.46,0L46.2,45.45a2.46,2.46,0,0,0-3.46,0l-9.31,9.32a2.44,2.44,0,0,0,0,3.46l4.17,4.18a2.44,2.44,0,0,1,0,3.46l-.24.25a2.47,2.47,0,0,1-3.46,0L17.33,49.75A2.45,2.45,0,0,1,17.32,46.28Z"/></g></g></svg>